            <svg xmlns="http://www.w3.org/2000/svg" viewBox="0 0 73.04 91.51"><g id="Layer_2" data-name="Layer 2"><g id="Layer_1-2" data-name="Layer 1"><path d="M30.85,5.83v5.54h0V67.8c.17,0,6.41,1.64,11.36,0V11.37h0V5.83h0C42.2.54,50.68,0,50.68,0H22.36S30.85.54,30.85,5.83Z"/><path d="M12.81,58.11h0Z"/><path d="M68.48,28.13c0-.05,0-.1-.08-.14q-.54-1-1.14-1.89l-.18-.28a34.92,34.92,0,0,0-2.94-3.9L64,21.79c-.51-.57-1-1.13-1.57-1.68l-.24-.24q-.9-.9-1.86-1.74h0l-.07-.05-.18-.14-.23-.2c-.33-.27-.66-.55-1-.81l-.81-.62c-.46-.34-.93-.66-1.41-1-.23-.16-.47-.31-.71-.46q-.66-.42-1.35-.81l-.54-.3h0a23.79,23.79,0,0,0-3.29-1.59l0,.05c8.63,12.48,10.58,23.6,10.59,31.11,0,1-.11,2-.17,2.81l0,.19c-.05.58-.1,1.11-.15,1.58s-.13,1.05-.2,1.56-.15.88-.23,1.29c-.11.57-.23,1.14-.38,1.69v0A24.62,24.62,0,0,1,36.82,70.38h0a24.53,24.53,0,0,1-9.25-1.66L27,68.48c-.37-.15-.74-.31-1.1-.49s-.77-.37-1.14-.57l-.43-.24c-.53-.3-1-.62-1.54-1l-.08,0a24.74,24.74,0,0,1-8.11-9.26,57.68,57.68,0,0,0,9.23,21.28l.13.2.19.27,1.31,1.89a36.49,36.49,0,0,0,43-52.42Z"/><path d="M49.08,13l-.18-.27L47.69,11c-1.15-.37-2.33-.68-3.53-.94V22.36c.44.14.88.27,1.31.43l.58.24c.37.15.73.32,1.1.49s.76.37,1.13.58a4.77,4.77,0,0,1,.44.24c.52.3,1,.61,1.53.95l.08.05a24.67,24.67,0,0,1,8.15,9.34A57.5,57.5,0,0,0,49.21,13.2Z"/><path d="M11.73,48.25c0-.74,0-1.47,0-2.14,0-.27,0-.53.06-.77a.76.76,0,0,0,0-.15c.05-.58.1-1.11.15-1.58s.13-1,.21-1.56.14-.88.22-1.29c.12-.57.23-1.14.39-1.69v0A24.61,24.61,0,0,1,28.87,22.32V10A36.49,36.49,0,0,0,4.56,63.38l.08.14q.54,1,1.14,1.89l.18.28a37.54,37.54,0,0,0,2.94,3.9l.12.13c.5.58,1,1.14,1.57,1.68l.24.24c.6.6,1.21,1.18,1.85,1.73h0l.48.42c.33.28.67.55,1,.82l.81.61c.47.34.93.67,1.41,1l.71.45,1.36.82.53.3,1,.52.39.2.55.28.17.08c.4.19.82.36,1.24.54l0,0C13.69,66.89,11.74,55.77,11.73,48.25Z"/><path d="M42.2,85.68v-2h0a16.21,16.21,0,0,1-11.34,0v2h0c0,5.3-8.49,5.83-8.49,5.83H50.68S42.2,91,42.2,85.68Z"/></g></g></svg>